<svg xmlns="http://www.w3.org/2000/svg" viewBox="0 0 77.52 32"><defs><style>.cls-1{fill:none;}.cls-2,.cls-3{fill:#e2b055;}.cls-3{opacity:0.7;}.cls-4{fill:#2b2b2b;}.cls-5{fill:#414042;}</style></defs><g id="Layer_2" data-name="Layer 2"><g id="Layer_2-2" data-name="Layer 2"><polygon class="cls-1" points="41.63 31.05 48.12 31.05 46.23 26.45 41.63 31.05"/><polygon class="cls-1" points="42.87 23.33 42.87 23.33 40.3 29.49 40.75 30.58 45.83 25.5 43.92 20.86 42.87 23.32 42.87 23.33 42.87 23.33"/><polygon class="cls-1" points="35.25 19.7 33.76 16.11 27.16 18.86 33.02 24.72 33.14 24.84 35.25 19.7 35.25 19.7 35.25 19.7"/><polygon class="cls-1" points="37.33 14.62 34.59 15.76 35.73 18.53 37.35 14.61 37.33 14.62"/><polygon class="cls-1" points="39.82 28.34 42.39 22.17 39.83 15.95 37.26 22.2 39.82 28.34"/><polygon class="cls-1" points="45.4 14.95 47.23 10.49 41.58 12.85 41.83 13.46 45.4 14.95"/><polygon class="cls-1" points="32.42 10.5 34.25 14.94 37.82 13.45 38.02 12.96 38.07 12.85 32.42 10.5"/><polygon class="cls-1" points="39.83 8.59 39.83 8.59 39.83 8.59 40.86 11.1 40.87 11.1 45.06 0.91 34.59 0.91 38.79 11.1 39.62 9.09 39.83 8.59"/><polygon class="cls-1" points="39.65 31.05 39.99 31.05 39.82 30.64 39.65 31.05"/><polygon class="cls-1" points="33.64 0.91 28.48 0.91 31.95 9.34 38.18 11.94 33.64 0.91"/><polygon class="cls-1" points="47.71 9.33 51.18 0.91 46.02 0.91 41.48 11.93 47.71 9.33"/><polygon class="cls-1" points="44.4 19.7 44.4 19.7 44.4 19.7 46.51 24.82 52.48 18.86 45.88 16.11 44.4 19.7"/><polygon class="cls-1" points="45.06 15.77 42.31 14.62 43.91 18.52 45.06 15.77"/><polygon class="cls-1" points="31.54 31.05 38.01 31.05 33.42 26.46 31.54 31.05"/><polygon class="cls-1" points="36.78 23.36 36.51 22.76 35.73 20.86 33.82 25.51 38.89 30.58 39.34 29.49 36.78 23.35 36.78 23.36"/><polygon class="cls-2" points="39.62 9.09 39.83 8.59 39.83 8.59 39.62 9.09"/><path class="cls-3" d="M46.22,15.29l2.69-6.45h0L52.51,0H27.14l3.65,8.86-.06,0,2.69,6.45-7.59,3.16v.42l6.92,6.92L30.19,32H49.47L46.9,25.77l6.91-6.9.08-.09v-.3Zm5-14.38L47.71,9.33l-6.23,2.6L46,.91Zm-22.7,0h5.16l4.54,11L32,9.34Zm3.06,30.14,1.88-4.59L38,31.05Zm7.35-.47-5.07-5.07,1.91-4.65.78,1.9.27.6h0l2.56,6.14Zm.76.47.17-.4.17.4Zm8.47,0H41.63l4.59-4.6Zm-1.61-6.23L44.4,19.7l-1.53,3.62,1.05-2.46,1.91,4.64-5.08,5.08-.45-1.09,2.57-6.16h0l-3-7.39h0l2.56,6.23-2.57,6.17L37.26,22.2l-.48,1.15L35.25,19.7l-2.11,5.13L33,24.72l-5.86-5.86,6.6-2.75,1.49,3.59.48-1.17-1.14-2.77,2.74-1.14h0L38,13l-.21.49-3.57,1.49L32.42,10.5l5.65,2.35.72-1.75L34.59.91H45.06L40.86,11.1h0l.72,1.75,5.65-2.36L45.4,15l-3.57-1.49.48,1.16,2.75,1.15-1.15,2.75.49,1.18,1.48-3.59,6.6,2.75Z"/><polygon class="cls-4" points="42.87 23.33 42.87 23.32 42.87 23.33 42.87 23.33"/><rect class="cls-4" x="44.4" y="19.7"/><rect class="cls-4" x="41.01" y="16.57" width="4.21"/><polygon class="cls-4" points="38.5 14.13 36.37 19.37 36.93 20.71 39.35 14.78 38.99 13.92 38.5 14.13"/><rect class="cls-4" x="35.16" y="19.07" width="6.76" transform="translate(-4.4 16.78) rotate(-23.27)"/><polygon class="cls-4" points="40.66 13.93 40.31 14.78 42.78 20.81 43.35 19.47 41.16 14.14 40.66 13.93"/><rect class="cls-4" x="35.25" y="19.7"/><polygon class="cls-4" points="39.81 13.58 39.83 13.62 39.84 13.59 39.82 13.58 39.81 13.58"/><polygon class="cls-4" points="39.82 12.62 40.32 12.41 40.38 12.27 39.83 10.91 39.27 12.27 39.33 12.42 39.82 12.62"/><rect class="cls-4" x="40.34" y="8.49" height="2.72" transform="translate(-0.71 16.1) rotate(-22.38)"/><rect class="cls-4" x="41.37" y="13.15" width="0.66" transform="translate(18.83 50.43) rotate(-75.96)"/><polygon class="cls-4" points="39.62 9.09 38.79 11.1 38.79 11.1 39.62 9.09"/><polygon class="cls-4" points="38.07 12.85 38.02 12.96 38.07 12.85 38.07 12.85"/><rect class="cls-4" x="34.42" y="16.57" width="4.24"/><path class="cls-2" d="M44.4,19.7l-.49-1.18h0l-1.6-3.9h0l-.48-1.16h0l-.25-.61h0l-.72-1.75h0l-1-2.51-.21.5-.83,2h0l-.72,1.75h0L38,13l-.68,1.65h0l-1.62,3.92h0l-.48,1.17h0l1.53,3.65.48-1.15h0l2.57-6.25h0l3,7.39h0L44.4,19.7Zm-4.57-8.79.55,1.36-.06.14-.5.21-.49-.2-.06-.15Zm-2.9,9.8-.56-1.34,2.13-5.24.5-.21.35.86Zm2.9-7.09,0,0h0Zm3,7.19-2.48-6,.35-.85.49.21,2.2,5.33Z"/><path class="cls-5" d="M.52,12.72H1l1.88,5.1,2.45-4.58,2.31,4.59,2.13-5.11h.49L7.65,19.11,5.34,14.47,2.82,19.11Z"/><polygon class="cls-5" points="2.75 20.01 0 12.36 1.27 12.36 2.95 16.92 5.35 12.44 7.62 16.95 9.53 12.36 10.81 12.36 7.68 20 5.33 15.26 2.75 20.01"/><path class="cls-5" d="M13.67,12.72h.45v6.8h-.45Z"/><rect class="cls-5" x="13.3" y="12.35" width="1.18" height="7.53"/><path class="cls-5" d="M18.75,19.52H18.3V13.24L24,18V12.72h.44v6.39l-5.7-4.8Z"/><polygon class="cls-5" points="24.82 19.89 19.11 15.1 19.11 19.89 17.93 19.89 17.93 12.45 23.64 17.25 23.64 12.36 24.82 12.36 24.82 19.89"/><path class="cls-5" d="M34.09,13.52v.59a3.06,3.06,0,0,0-1-.79A2.9,2.9,0,0,0,31.79,13a2.86,2.86,0,0,0-2.17.91,3.09,3.09,0,0,0-.88,2.21,3,3,0,0,0,.88,2.17,2.92,2.92,0,0,0,2.18.89A3,3,0,0,0,33,19a3.29,3.29,0,0,0,1.05-.76v.6a3.58,3.58,0,0,1-1,.62,3.41,3.41,0,0,1-1.24.22,3.45,3.45,0,0,1-2.53-1,3.31,3.31,0,0,1-1-2.46,3.39,3.39,0,0,1,1-2.49,3.49,3.49,0,0,1,2.5-1,3.3,3.3,0,0,1,1.27.24A3.85,3.85,0,0,1,34.09,13.52Z"/><path class="cls-5" d="M31.82,20A3.86,3.86,0,0,1,29,18.86a3.67,3.67,0,0,1-1.12-2.73A3.74,3.74,0,0,1,29,13.39a3.85,3.85,0,0,1,2.76-1.13,3.45,3.45,0,0,1,1.41.28,3.79,3.79,0,0,1,1.12.7l.12.11V15.1l-.64-.75a2.72,2.72,0,0,0-.92-.7,2.64,2.64,0,0,0-1.1-.25,2.55,2.55,0,0,0-1.91.8,2.71,2.71,0,0,0-.77,2,2.65,2.65,0,0,0,2.69,2.7,2.57,2.57,0,0,0,1.08-.24,3,3,0,0,0,.94-.68l.63-.68V19l-.12.11a3.78,3.78,0,0,1-1.14.69A3.7,3.7,0,0,1,31.82,20Z"/><path class="cls-5" d="M46.58,19.52h-.45l.78-6.08,2.94,4.68,2.95-4.68.77,6.08h-.45l-.6-4.5L49.85,19.1,47.18,15Z"/><polygon class="cls-5" points="53.99 19.89 52.8 19.89 52.29 16.04 49.85 19.77 47.42 16.04 46.91 19.89 45.72 19.89 46.67 12.38 49.85 17.43 53.03 12.38 53.99 19.89"/><path class="cls-5" d="M59,16.29h-.88v3.23h-.45v-6.8H59a2.15,2.15,0,0,1,1.42.47A1.59,1.59,0,0,1,61,14.5a1.68,1.68,0,0,1-.54,1.32A2.14,2.14,0,0,1,59,16.29Zm-.88-3.16v2.75H59a1.52,1.52,0,0,0,1.07-.37,1.25,1.25,0,0,0,.41-1,1.24,1.24,0,0,0-.41-1A1.68,1.68,0,0,0,59,13.13Z"/><path class="cls-5" d="M58.5,19.89H57.31V12.35H59a2.51,2.51,0,0,1,1.66.56,2,2,0,0,1,.69,1.59,2,2,0,0,1-.67,1.59,2.43,2.43,0,0,1-1.67.57H58.5Zm0-4.38H59a1.22,1.22,0,0,0,.83-.27,1.06,1.06,0,0,0,0-1.46A1.36,1.36,0,0,0,59,13.5H58.5Z"/><path class="cls-5" d="M64.58,12.72H65V17a3.62,3.62,0,0,0,.06.9,1.59,1.59,0,0,0,.23.57A1.51,1.51,0,0,0,66,19a2.2,2.2,0,0,0,.92.19,2.14,2.14,0,0,0,.9-.19,1.62,1.62,0,0,0,.68-.59,1.77,1.77,0,0,0,.21-.57,4.06,4.06,0,0,0,.07-.9V12.72h.45V17A6.31,6.31,0,0,1,69.12,18a2.23,2.23,0,0,1-.3.69,2,2,0,0,1-.82.69,2.64,2.64,0,0,1-1.1.22,2.67,2.67,0,0,1-1.12-.22,1.93,1.93,0,0,1-.81-.69,2,2,0,0,1-.31-.69A4.28,4.28,0,0,1,64.58,17Z"/><path class="cls-5" d="M66.9,20a3,3,0,0,1-1.27-.26,2.18,2.18,0,0,1-1-.82,2.24,2.24,0,0,1-.37-.8A5.73,5.73,0,0,1,64.21,17V12.35H65.4V17a3.66,3.66,0,0,0,0,.83,1.3,1.3,0,0,0,.17.44,1.16,1.16,0,0,0,.52.46,1.88,1.88,0,0,0,.76.16,1.7,1.7,0,0,0,.74-.16,1.2,1.2,0,0,0,.52-.45,1.77,1.77,0,0,0,.18-.45,5.42,5.42,0,0,0,0-.83V12.35h1.19V17a6.12,6.12,0,0,1-.1,1.14,2.65,2.65,0,0,1-.35.81,2.34,2.34,0,0,1-1,.82A3,3,0,0,1,66.9,20Z"/><path class="cls-5" d="M76.8,13.6l-.32.27a1.67,1.67,0,0,0-.55-.6,1.33,1.33,0,0,0-.79-.23,1.21,1.21,0,0,0-.92.36,1.28,1.28,0,0,0-.34.9,1,1,0,0,0,.21.68,3,3,0,0,0,1,.64l1.1.55.26.16a1.89,1.89,0,0,1,.55.59,1.53,1.53,0,0,1,.17.72,1.86,1.86,0,0,1-.62,1.42,2.16,2.16,0,0,1-1.5.57,2,2,0,0,1-.87-.17,1.9,1.9,0,0,1-.71-.54,3,3,0,0,1-.27-.35,2,2,0,0,1-.17-.4L73.4,18a1.48,1.48,0,0,0,.15.35,1.46,1.46,0,0,0,.22.3,1.36,1.36,0,0,0,.56.44,1.7,1.7,0,0,0,.71.14,1.6,1.6,0,0,0,1.17-.44,1.51,1.51,0,0,0,.47-1.12,1.14,1.14,0,0,0-.17-.61,1.58,1.58,0,0,0-.49-.47l-.35-.17-.92-.47a3.83,3.83,0,0,1-.78-.45,1.44,1.44,0,0,1-.35-.39,1.27,1.27,0,0,1-.17-.38,1.7,1.7,0,0,1,0-.4,1.59,1.59,0,0,1,.49-1.21,1.78,1.78,0,0,1,1.25-.48,1.8,1.8,0,0,1,.95.25A1.86,1.86,0,0,1,76.8,13.6Z"/><path class="cls-5" d="M75,20a2.61,2.61,0,0,1-1-.2,2.3,2.3,0,0,1-.84-.64,2.06,2.06,0,0,1-.3-.41,1.82,1.82,0,0,1-.21-.47l-.09-.3,1.05-.5.13.4a1.31,1.31,0,0,0,.12.28.91.91,0,0,0,.17.23v0a1.1,1.1,0,0,0,.42.32,1.39,1.39,0,0,0,.57.12,1.25,1.25,0,0,0,.91-.34,1.13,1.13,0,0,0,.36-.86.7.7,0,0,0-.11-.41,1.21,1.21,0,0,0-.36-.35l-.34-.17-.91-.46a4.83,4.83,0,0,1-.85-.49,1.81,1.81,0,0,1-.43-.49,1.46,1.46,0,0,1-.21-.48,1.93,1.93,0,0,1-.06-.49,2,2,0,0,1,.6-1.48,2.2,2.2,0,0,1,1.51-.58h0a2.26,2.26,0,0,1,1.14.3,2.29,2.29,0,0,1,.83.86l.15.26-.9.77-.22-.4a1.31,1.31,0,0,0-.42-.48,1,1,0,0,0-.59-.17.86.86,0,0,0-.65.25.9.9,0,0,0-.25.65.67.67,0,0,0,.14.45,2.63,2.63,0,0,0,.85.54c.88.43,1.06.53,1.12.57l.27.16h0a2.29,2.29,0,0,1,.66.71,1.93,1.93,0,0,1,.22.9,2.21,2.21,0,0,1-.74,1.69A2.53,2.53,0,0,1,75,20Z"/><polygon class="cls-5" points="42.29 19.66 39.82 13.72 37.35 19.66 36.84 19.66 39.82 12.5 42.8 19.66 42.29 19.66"/><polyline class="cls-5" points="42.72 21.19 43.52 19.26 39.86 10.36 36.19 19.28 37 21.21 39.86 14.26"/></g></g></svg>