<svg xmlns="http://www.w3.org/2000/svg" viewBox="0 0 26.61 26.61"><defs><style>.cls-1{fill:#a7a9ac;opacity:0.3;}.cls-2{fill:#fff;}</style></defs><g id="Layer_2" data-name="Layer 2"><g id="Layer_2-2" data-name="Layer 2"><circle class="cls-1" cx="13.31" cy="13.31" r="13.31"/><path class="cls-2" d="M14.86,7.58a1.52,1.52,0,0,0-.66.15l-2.59,1.2a1.21,1.21,0,0,0,.92,2.23l2.32-.84L19,14.38a1.54,1.54,0,0,1,.47,1.11v.62h.77a.78.78,0,0,0,.78-.78V9.43a.78.78,0,0,0-1-.74l-1.31.44L15.52,7.72A1.7,1.7,0,0,0,14.86,7.58Zm-8.53.78a.76.76,0,0,0-.77.77v7h.77L11,20.23a2.12,2.12,0,0,0,2.89-.1l3.29-3.28a2.09,2.09,0,0,0,.61-1.48l-3.36-3.26-1.41.51A2.76,2.76,0,0,1,9.51,9.13a2.54,2.54,0,0,1,.43-.77Z"/></g></g></svg>