<svg xmlns="http://www.w3.org/2000/svg" viewBox="0 0 94.53 39.03"><defs><style>.cls-1{fill:none;}.cls-2,.cls-3{fill:#e2b055;}.cls-3{opacity:0.7;}.cls-4{fill:#2b2b2b;}.cls-5{fill:#fff;}</style></defs><g id="Layer_2" data-name="Layer 2"><g id="Layer_2-2" data-name="Layer 2"><polygon class="cls-1" points="50.76 37.87 58.68 37.87 56.37 32.26 50.76 37.87"/><polygon class="cls-1" points="52.28 28.45 52.28 28.45 49.14 35.97 49.7 37.3 55.89 31.1 53.56 25.44 52.28 28.44 52.28 28.45 52.28 28.45"/><polygon class="cls-1" points="42.99 24.02 41.17 19.64 33.12 23 40.27 30.14 40.41 30.29 42.99 24.02 42.99 24.02 42.99 24.02"/><polygon class="cls-1" points="45.52 17.83 42.18 19.22 43.58 22.6 45.55 17.82 45.52 17.83"/><polygon class="cls-1" points="48.56 34.56 51.7 27.04 48.57 19.44 45.44 27.07 48.56 34.56"/><polygon class="cls-1" points="55.36 18.23 57.6 12.79 50.71 15.67 51.02 16.42 55.36 18.23"/><polygon class="cls-1" points="39.54 12.8 41.77 18.22 46.13 16.41 46.37 15.81 46.43 15.67 39.54 12.8"/><polygon class="cls-1" points="48.57 10.47 48.57 10.47 48.57 10.47 49.83 13.54 49.83 13.54 54.95 1.11 42.19 1.11 47.31 13.54 48.32 11.08 48.57 10.47"/><polygon class="cls-1" points="48.35 37.87 48.77 37.87 48.56 37.37 48.35 37.87"/><polygon class="cls-1" points="41.02 1.11 34.73 1.11 38.96 11.39 46.56 14.56 41.02 1.11"/><polygon class="cls-1" points="58.18 11.38 62.41 1.11 56.12 1.11 50.58 14.55 58.18 11.38"/><polygon class="cls-1" points="54.15 24.02 54.15 24.02 54.15 24.02 56.72 30.27 64 23 55.95 19.64 54.15 24.02"/><polygon class="cls-1" points="54.95 19.23 51.6 17.83 53.55 22.58 54.95 19.23"/><polygon class="cls-1" points="38.46 37.87 46.36 37.87 40.76 32.27 38.46 37.87"/><polygon class="cls-1" points="44.85 28.48 44.53 27.75 43.58 25.44 41.24 31.11 47.42 37.3 47.97 35.97 44.85 28.48 44.85 28.48"/><polygon class="cls-2" points="48.32 11.08 48.57 10.47 48.57 10.47 48.32 11.08"/><path class="cls-3" d="M56.36,18.64l3.28-7.87,0,0L64,0H33.1l4.45,10.81-.07,0,3.28,7.87L31.5,22.5V23l8.43,8.44L36.81,39H60.32l-3.12-7.6L65.62,23l.09-.11v-.36Zm6-17.53L58.18,11.38l-7.6,3.17L56.12,1.11Zm-27.68,0H41l5.54,13.45L39,11.39Zm3.73,36.76,2.3-5.6,5.6,5.6Zm9-.57-6.18-6.19,2.34-5.67,1,2.31.32.73h0L48,36Zm.93.57.21-.5.21.5Zm10.33,0H50.76l5.61-5.61Zm-2-7.6L54.15,24l-1.87,4.42,1.28-3,2.33,5.66L49.7,37.3,49.14,36l3.14-7.52h0l-3.71-9h0L51.7,27l-3.14,7.52-3.13-7.49-.58,1.41L43,24l-2.58,6.27-.14-.14L33.12,23l8.05-3.36L43,24l.59-1.42-1.4-3.38,3.34-1.39h0l.83-2-.24.6-4.36,1.81L39.54,12.8l6.89,2.87.88-2.13L42.19,1.11H55L49.83,13.53h0l.88,2.13,6.89-2.88-2.24,5.44L51,16.42l.58,1.41L55,19.23l-1.4,3.35.6,1.44L56,19.64,64,23Z"/><polygon class="cls-4" points="52.28 28.45 52.28 28.44 52.28 28.45 52.28 28.45"/><rect class="cls-4" x="54.15" y="24.02"/><rect class="cls-4" x="50.01" y="20.2" width="5.14"/><polygon class="cls-4" points="46.95 17.23 44.35 23.62 45.04 25.26 47.98 18.03 47.55 16.98 46.95 17.23"/><rect class="cls-4" x="42.88" y="23.25" width="8.24" transform="translate(-5.36 20.46) rotate(-23.27)"/><polygon class="cls-4" points="49.58 16.99 49.15 18.03 52.18 25.38 52.86 23.74 50.19 17.24 49.58 16.99"/><rect class="cls-4" x="42.99" y="24.02"/><polygon class="cls-4" points="48.55 16.57 48.57 16.61 48.58 16.57 48.56 16.56 48.55 16.57"/><polygon class="cls-4" points="48.56 15.39 49.17 15.14 49.25 14.96 48.57 13.31 47.89 14.96 47.97 15.15 48.56 15.39"/><rect class="cls-4" x="49.2" y="10.35" height="3.32" transform="matrix(0.92, -0.38, 0.38, 0.92, -0.87, 19.63)"/><rect class="cls-4" x="50.46" y="16.04" width="0.81" transform="translate(22.96 61.49) rotate(-75.96)"/><polygon class="cls-4" points="48.32 11.08 47.31 13.54 47.31 13.54 48.32 11.08"/><polygon class="cls-4" points="46.43 15.67 46.37 15.81 46.43 15.67 46.43 15.67"/><rect class="cls-4" x="41.97" y="20.21" width="5.17"/><path class="cls-2" d="M54.15,24l-.6-1.44h0L51.6,17.83h0L51,16.42h0l-.31-.75h0l-.88-2.13h0l-1.26-3.07-.25.61-1,2.46h0l-.88,2.13h0l-.06.14-.83,2h0l-2,4.78h0L43,24h0l1.86,4.46.58-1.41h0l3.14-7.62h0l3.71,9h0L54.15,24ZM48.57,13.31,49.25,15l-.08.18-.61.25L48,15.15,47.89,15ZM45,25.26l-.69-1.64L47,17.23l.6-.25L48,18Zm3.53-8.65,0,0h0Zm3.61,8.77-3-7.35.43-1,.61.25,2.67,6.5Z"/><path class="cls-5" d="M.64,15.51h.6l2.28,6.22,3-5.59,2.8,5.6,2.6-6.23h.6l-3.2,7.8-2.8-5.67L3.43,23.31Z"/><polygon class="cls-5" points="3.35 24.4 0 15.07 1.55 15.07 3.6 20.64 6.53 15.17 9.29 20.67 11.62 15.07 13.19 15.07 9.36 24.4 6.5 18.61 3.35 24.4"/><path class="cls-5" d="M16.67,15.51h.55V23.8h-.55Z"/><rect class="cls-5" x="16.22" y="15.07" width="1.44" height="9.19"/><path class="cls-5" d="M22.86,23.8h-.55V16.14l7,5.85V15.51h.55V23.3l-7-5.85Z"/><polygon class="cls-5" points="30.27 24.26 23.31 18.41 23.31 24.25 21.87 24.25 21.87 15.18 28.83 21.03 28.83 15.07 30.27 15.07 30.27 24.26"/><path class="cls-5" d="M41.57,16.48v.72a3.85,3.85,0,0,0-1.27-1,3.55,3.55,0,0,0-1.53-.34A3.52,3.52,0,0,0,36.12,17a3.75,3.75,0,0,0-1.07,2.69,3.67,3.67,0,0,0,1.07,2.66,3.75,3.75,0,0,0,4.17.75,4.18,4.18,0,0,0,1.28-.92v.72a4.24,4.24,0,0,1-1.26.76,4.16,4.16,0,0,1-1.5.27,4.28,4.28,0,0,1-3.09-1.25,4.07,4.07,0,0,1-1.24-3,4.11,4.11,0,0,1,1.25-3,4.24,4.24,0,0,1,3.05-1.25,3.88,3.88,0,0,1,1.54.3A4.41,4.41,0,0,1,41.57,16.48Z"/><path class="cls-5" d="M38.81,24.39A4.73,4.73,0,0,1,35.4,23a4.72,4.72,0,0,1,0-6.67A4.68,4.68,0,0,1,38.78,15a4.43,4.43,0,0,1,1.72.34,5,5,0,0,1,1.37.86l.14.14v2.12l-.78-.91a3.21,3.21,0,0,0-1.12-.85,3.15,3.15,0,0,0-1.34-.3,3.09,3.09,0,0,0-2.33,1,3.3,3.3,0,0,0-.94,2.38A3.19,3.19,0,0,0,36.44,22a3.14,3.14,0,0,0,2.34,1,3.1,3.1,0,0,0,1.32-.3,3.57,3.57,0,0,0,1.14-.82l.77-.83v2.06l-.15.13a4.48,4.48,0,0,1-1.39.85A4.61,4.61,0,0,1,38.81,24.39Z"/><path class="cls-5" d="M56.81,23.8h-.55l.94-7.41,3.6,5.71,3.59-5.71.94,7.41h-.55l-.73-5.49-3.25,5-3.26-5Z"/><polygon class="cls-5" points="65.84 24.25 64.39 24.25 63.77 19.57 60.8 24.12 57.83 19.57 57.2 24.25 55.75 24.25 56.92 15.1 60.8 21.25 64.67 15.1 65.84 24.25"/><path class="cls-5" d="M72,19.86H70.89V23.8h-.55V15.51H72a2.59,2.59,0,0,1,1.74.58,2,2,0,0,1,.68,1.59,2,2,0,0,1-.67,1.61A2.57,2.57,0,0,1,72,19.86ZM70.89,16v3.36H72a1.88,1.88,0,0,0,1.31-.45,1.73,1.73,0,0,0,0-2.45A2.06,2.06,0,0,0,71.9,16Z"/><path class="cls-5" d="M71.34,24.25H69.89V15.07H72a3,3,0,0,1,2,.67,2.41,2.41,0,0,1,.85,1.94A2.45,2.45,0,0,1,74,19.62a3,3,0,0,1-2,.69h-.62Zm0-5.33H72a1.51,1.51,0,0,0,1-.33,1.17,1.17,0,0,0,.35-.9,1.13,1.13,0,0,0-.35-.88,1.66,1.66,0,0,0-1.11-.35h-.55Z"/><path class="cls-5" d="M78.76,15.51h.54V20.7a6.22,6.22,0,0,0,.07,1.1,2.33,2.33,0,0,0,.28.69,1.85,1.85,0,0,0,.82.72,2.77,2.77,0,0,0,2.21,0,2,2,0,0,0,.83-.72,2.29,2.29,0,0,0,.26-.69,5.25,5.25,0,0,0,.08-1.1V15.51h.55V20.7A7.61,7.61,0,0,1,84.29,22a2.45,2.45,0,0,1-1.36,1.68,3.54,3.54,0,0,1-2.71,0,2.38,2.38,0,0,1-1-.85,2.32,2.32,0,0,1-.38-.83,5.59,5.59,0,0,1-.09-1.29Z"/><path class="cls-5" d="M81.58,24.39A3.86,3.86,0,0,1,80,24.08a2.9,2.9,0,0,1-1.17-1,3.06,3.06,0,0,1-.45-1,5.88,5.88,0,0,1-.1-1.4V15.07h1.44V20.7a4.38,4.38,0,0,0,.06,1,1.67,1.67,0,0,0,.22.55,1.43,1.43,0,0,0,.62.55,2.25,2.25,0,0,0,.93.2,2.16,2.16,0,0,0,.91-.2,1.4,1.4,0,0,0,.63-.55,1.66,1.66,0,0,0,.21-.55,4.86,4.86,0,0,0,.08-1V15.07h1.44V20.7a7.68,7.68,0,0,1-.12,1.39,3,3,0,0,1-.43,1,2.89,2.89,0,0,1-1.19,1A3.8,3.8,0,0,1,81.58,24.39Z"/><path class="cls-5" d="M93.66,16.58l-.4.34a2,2,0,0,0-.66-.74,1.68,1.68,0,0,0-1-.28,1.45,1.45,0,0,0-1.12.45,1.53,1.53,0,0,0-.42,1.09,1.29,1.29,0,0,0,.26.83,3.65,3.65,0,0,0,1.2.77l1.33.68.32.19a2.27,2.27,0,0,1,.67.73,1.79,1.79,0,0,1,.21.88,2.25,2.25,0,0,1-.76,1.73,2.6,2.6,0,0,1-1.82.69,2.83,2.83,0,0,1-1.07-.2,2.43,2.43,0,0,1-.86-.67,2.29,2.29,0,0,1-.32-.43,2.06,2.06,0,0,1-.21-.48l.47-.22a1.9,1.9,0,0,0,.19.42,1.58,1.58,0,0,0,.26.38,1.75,1.75,0,0,0,.68.52,2.12,2.12,0,0,0,.87.18,1.91,1.91,0,0,0,1.42-.54,1.78,1.78,0,0,0,.58-1.37,1.38,1.38,0,0,0-.2-.73,1.9,1.9,0,0,0-.61-.58L92.27,20l-1.11-.57a5,5,0,0,1-1-.55,1.91,1.91,0,0,1-.42-.48,1.27,1.27,0,0,1-.2-.45,2,2,0,0,1-.06-.49,1.94,1.94,0,0,1,.6-1.48,2.19,2.19,0,0,1,1.53-.59,2.22,2.22,0,0,1,1.16.31A2.29,2.29,0,0,1,93.66,16.58Z"/><path class="cls-5" d="M91.5,24.39a3.12,3.12,0,0,1-1.24-.24,2.71,2.71,0,0,1-1-.78,3,3,0,0,1-.38-.5,2.48,2.48,0,0,1-.25-.58l-.11-.37,1.28-.61.16.5a1.87,1.87,0,0,0,.15.34,1.26,1.26,0,0,0,.2.28l0,0a1.32,1.32,0,0,0,.51.39,1.62,1.62,0,0,0,.69.15,1.51,1.51,0,0,0,1.11-.42,1.37,1.37,0,0,0,.44-1,.88.88,0,0,0-.13-.49,1.31,1.31,0,0,0-.45-.42l-.41-.21L91,19.84a5.22,5.22,0,0,1-1-.6,2.43,2.43,0,0,1-.52-.59,2,2,0,0,1-.26-.59,2.8,2.8,0,0,1-.07-.59,2.41,2.41,0,0,1,.74-1.81A2.59,2.59,0,0,1,91.64,15h0a2.75,2.75,0,0,1,1.39.37,2.68,2.68,0,0,1,1,1l.18.33-1.1.93-.26-.49a1.62,1.62,0,0,0-.52-.58,1.24,1.24,0,0,0-.72-.2,1,1,0,0,0-.79.3,1.11,1.11,0,0,0-.3.79.82.82,0,0,0,.16.55,3,3,0,0,0,1,.65c1.08.53,1.3.65,1.37.7l.32.19,0,0a2.7,2.7,0,0,1,.8.87,2.21,2.21,0,0,1,.27,1.1,2.7,2.7,0,0,1-.9,2.06A3.06,3.06,0,0,1,91.5,24.39Z"/><polygon class="cls-5" points="51.58 23.98 48.56 16.74 45.55 23.98 44.93 23.98 48.56 15.25 52.2 23.98 51.58 23.98"/><polyline class="cls-5" points="52.09 25.85 53.08 23.49 48.61 12.64 44.13 23.51 45.12 25.87 48.61 17.38"/></g></g></svg>