<svg xmlns="http://www.w3.org/2000/svg" viewBox="0 0 26.61 26.61"><defs><style>.cls-1{fill:#a7a9ac;opacity:0.3;}.cls-2{fill:#fff;}</style></defs><g id="Layer_2" data-name="Layer 2"><g id="Layer_2-2" data-name="Layer 2"><circle class="cls-1" cx="13.31" cy="13.31" r="13.31"/><path class="cls-2" d="M10,6.68a2.49,2.49,0,1,0,2.49,2.49A2.48,2.48,0,0,0,10,6.68Zm6.64,0a2.49,2.49,0,1,0,2.48,2.49A2.48,2.48,0,0,0,16.63,6.68ZM10,13.32c-2.49,0-5.81,1.21-5.81,2.9v2.07H15.8V16.22C15.8,14.53,12.48,13.32,10,13.32Zm6.64,0a7.63,7.63,0,0,0-.82,0,3.52,3.52,0,0,1,1.64,2.86v2.07h5V16.22C22.43,14.53,19.11,13.32,16.63,13.32Z"/></g></g></svg>