<svg xmlns="http://www.w3.org/2000/svg" viewBox="0 0 26.61 26.61"><defs><style>.cls-1{fill:#a7a9ac;opacity:0.3;}.cls-2{fill:#fff;}</style></defs><g id="Layer_2" data-name="Layer 2"><g id="Layer_2-2" data-name="Layer 2"><circle class="cls-1" cx="13.31" cy="13.31" r="13.31"/><path class="cls-2" d="M18,20.36h0C15.55,20.28,12.73,18,10.78,16S6.5,11.23,6.43,8.83c0-.84,2-2.34,2.05-2.35a1,1,0,0,1,1.38.1c.16.23,1.73,2.6,1.9,2.87a1.12,1.12,0,0,1-.07,1.11c-.12.23-.52.94-.71,1.27A16.89,16.89,0,0,0,12.83,14,18.41,18.41,0,0,0,15,15.81c.33-.19,1-.6,1.27-.72A1.14,1.14,0,0,1,17.33,15c.29.18,2.65,1.75,2.87,1.9a.86.86,0,0,1,.33.61,1.18,1.18,0,0,1-.23.77S18.81,20.36,18,20.36Z"/></g></g></svg>